<svg transform="scale(2)" version="1.1" id="Layer_1" xmlns="http://www.w3.org/2000/svg" xmlns:xlink="http://www.w3.org/1999/xlink" x="0px" y="0px" viewBox="0 0 500 500" xml:space="preserve" class="show_show__wrapper__graphic__5Waiy "><title>React</title><style type="text/css">
	.st0{fill:#00008b;}
	.st1{fill:#00008ba4;}
	.st2{fill:#FFFFFF;}
	.st3{fill:#00008b;}
	.st4{fill:none;}
</style><g id="Character_woman"><path class="st0" d="M207.7,256.8C154.8,288.3,99,425.6,99,425.6l262.8-1.4c0,0,59.9-143.8,37.7-166.9S230.1,243.4,207.7,256.8z"></path><path class="st1" d="M163.8,422c-0.1,0-0.3,0-0.4-0.1c-0.3-0.2-0.5-0.6-0.3-1c1.2-2.2,9.1-19.1,19-40.5
		c31.7-68.1,47.1-100.6,48.9-101.6c0.4-0.2,0.8,0,1,0.3s0,0.8-0.3,1c-2.3,2.2-29.9,61.6-48.2,100.8c-10,21.4-17.8,38.3-19.1,40.6
		C164.3,421.9,164.1,422,163.8,422z"></path><path class="st1" d="M272.1,258.9c0,0-15.2,42-1.5,52.9s59.2-37.3,64.8-69.6S272.1,258.9,272.1,258.9z"></path><path class="st1" d="M275.5,314.1c-1.9,0.1-3.8-0.6-5.4-1.7c-14-11.1,0.6-52,1.2-53.8c0-0.1,0.1-0.3,0.3-0.4
		c2-1.4,48.9-34.5,61.6-26.5c2.8,1.8,3.8,5.4,2.9,10.6c-4.5,26.4-35.5,63.2-54.5,70.5C279.7,313.6,277.6,314,275.5,314.1z
		 M272.7,259.3c-1.1,3.3-14.3,41.8-1.6,51.8c2.3,1.8,5.6,1.9,10,0.2c18.6-7.1,49-43.4,53.5-69.3c0.8-4.6,0-7.6-2.2-9.1
		c-4.8-3.1-16.7,0.5-34.2,10.3C285.6,250.3,274.3,258.2,272.7,259.3z"></path><path class="st2" d="M270.5,223.2l1.5,35.6c0,0,13.2,20.6,35.4,12.4s28-29.1,28-29.1l-7.7-64.3c0,0-18-7.1-17.2-44.3
		c0,0-23.9,15.5-58.2,15.1c0,0-5.8,41-1,58.3S270.5,223.2,270.5,223.2z"></path><path class="st1" d="M297.3,273.9c-16.2,0-25.7-14.5-25.9-14.7c-0.1-0.1-0.1-0.2-0.1-0.4l-1.5-34.9c-3.2-0.1-15-1.4-19.2-16.8
		c-4.8-17.3,0.7-56.9,0.9-58.6c0.1-0.4,0.4-0.6,0.8-0.6c33.8,0.4,57.6-14.8,57.8-14.9c0.3-0.2,0.8-0.1,1.1,0.2
		c0.1,0.1,0.1,0.3,0.1,0.4c-0.4,19,4.2,29.8,8.1,35.6c4.2,6.2,8.6,8,8.6,8c0.3,0.1,0.4,0.3,0.5,0.6l7.7,64.3c0,0.1,0,0.2,0,0.3
		c-0.1,0.2-6.2,21.4-28.4,29.6C304.4,273.3,300.8,273.9,297.3,273.9z M272.8,258.6c1.4,2.1,13.8,19.5,34.3,12s26.9-26.6,27.5-28.4
		l-7.6-63.7c-2.8-1.3-17.5-10-17.3-43.5c-17.2,9.5-36.5,14.5-56.2,14.5h-0.6c-0.7,5.3-5.2,41.6-0.9,57.3
		c4.6,16.5,17.9,15.7,18.5,15.7c0.2,0,0.4,0.1,0.6,0.2c0.1,0.1,0.2,0.3,0.2,0.5L272.8,258.6z"></path><path class="st2" d="M319,177.4c0.4-3.2,1.9-6.2,4.1-8.5c2.2-2.1,4.7-3.7,7.5-4.9c1.4-0.8,3.1-1.3,4.7-1.4c1.2,0.1,2.3,0.3,3.4,0.8
		c2.6,0.9,4.8,2.7,6.2,5.1c0.8,2,1.2,4.3,1,6.5c0,2.4-0.4,4.8-1,7.1c-2.8,9.6-12.9,15.1-22.6,12.3c-0.1,0-0.2-0.1-0.3-0.1"></path><path class="st1" d="M327.6,195.8c-1.9,0-3.8-0.3-5.6-0.9c-0.4-0.1-0.6-0.6-0.5-1c0.1-0.4,0.6-0.6,1-0.5
		c9.2,2.9,18.9-2.3,21.8-11.4c0-0.1,0-0.2,0.1-0.2c0.6-2.3,0.9-4.6,0.9-6.9c0.2-2.1-0.2-4.2-1-6.1c-1.2-2.5-3.8-4-5.8-4.8
		c-1-0.5-2-0.7-3.1-0.8l0,0c-1.5,0.1-3,0.6-4.4,1.3c-2.7,1.2-5.2,2.8-7.3,4.8c-2.1,2.2-3.5,5.1-3.9,8.1c0,0.4-0.4,0.7-0.8,0.7
		c0,0,0,0,0,0c-0.4-0.1-0.7-0.4-0.7-0.8c0,0,0,0,0,0c0.4-3.4,2-6.5,4.3-9c2.3-2.1,4.9-3.8,7.7-5.1c1.5-0.9,3.2-1.4,5-1.5
		c1.3,0.1,2.5,0.3,3.7,0.9c2.8,1,5.1,2.9,6.5,5.5c0.9,2.2,1.3,4.5,1.1,6.8c0,2.5-0.3,4.9-1,7.3C343.3,190.3,335.9,195.8,327.6,195.8
		L327.6,195.8z"></path><path class="st1" d="M275.5,190.4c-1.8,0.1-3.6-0.4-5-1.5c-3.3-3,4.8-18.1,7.3-22.6c0.2-0.3,0.6-0.5,1-0.3c0.4,0.2,0.5,0.6,0.3,1
		c-4.9,8.8-9.2,19.3-7.6,20.8c2.3,2.1,8.1,0.7,10.1,0c0.4-0.1,0.8,0.1,1,0.5s-0.1,0.8-0.5,1C280,190,277.7,190.4,275.5,190.4z"></path><path class="st1" d="M424.4,390.4c-12.8,0.2-25.2-5.1-33.9-14.5c-0.3-0.3-0.3-0.8-0.1-1.1c0.3-0.3,0.8-0.3,1.1-0.1
		c0,0,0.1,0.1,0.1,0.1c9.1,9.9,22.4,15,36.7,13.8s27.4-8.6,34.8-20c6.2-9.5,9.3-21.8,9.3-37.7c0.1-14.9-2.5-36.1-15.2-52.7
		c-3.4-4.4-8-8.4-12.4-12.3c-9-7.9-18.3-16.1-19.6-28.6c-0.2-2.4-0.2-4.9,0-7.4c0.3-2.7,0.2-5.5-0.1-8.2c-1.4-8.5-8.8-16.1-20-20.2
		c-4.7-1.6-9.4-3-14.3-4c-5.1-1.1-10.2-2.5-15.1-4.3c-11.6-4.5-19.2-12.7-20.4-21.9c-0.1-0.4,0.2-0.8,0.7-0.9s0.8,0.2,0.9,0.7
		c1.3,10.1,10.9,17.3,19.4,20.7c4.9,1.8,9.9,3.2,14.9,4.3c4.9,1.1,9.7,2.4,14.5,4.1c11.6,4.4,19.5,12.4,20.9,21.4
		c0.4,2.8,0.4,5.7,0.1,8.6c-0.2,2.4-0.2,4.8,0,7.1c1.2,11.9,10.3,19.9,19,27.6c4.5,3.9,9.1,8,12.6,12.5c13,16.9,15.6,38.5,15.6,53.7
		c-0.1,16.2-3.2,28.8-9.6,38.5c-7.7,11.7-21.1,19.5-36,20.6C427.1,390.4,425.8,390.4,424.4,390.4z"></path><path class="st2" d="M317.1,383.4C306.2,360.2,209,270.8,201.2,259.2s-5.8-18.1-18.4-26.3s-32.1-22.7-35-21s-3.4,8.2-1,12.1
		s10.4,8.7,12.6,12.6s2.2,5.1,2.2,5.1s-35-8.2-39.9-13s-11.8-22-16.7-24.4c-3.1-1.4-6.5-2-9.9-1.4c0,0-5.1-6.5-8.5-3.9
		c-2.2,1.8-1.9,4.8-0.5,7c-3.9-2.7-2.6,3.7-2.3,5.5c6,34.4,35.1,60,70,61.4c6,0.2,14.6-1.1,18.9,3.7c3.7,4.2,4.9,10.5,7.5,15.4
		c3.6,7,7.3,13.9,11.1,20.8c9.4,17.1,19.2,34.1,29.7,50.5c11.5,18,24.1,38.2,41.4,51.3C298.4,441.7,328,406.7,317.1,383.4z"></path><path class="st1" d="M288.6,425.3c-8.5,0-17.6-3.4-26.4-10c-16.7-12.6-29.1-32.1-40.1-49.2l-1.5-2.3c-9.4-14.7-19.2-31.3-29.8-50.6
		c-3.7-6.8-7.5-13.8-11.1-20.8c-0.9-1.9-1.8-3.8-2.5-5.8c-1.3-3.4-2.6-6.9-4.9-9.5c-3.2-3.6-9.2-3.5-14.5-3.5c-1.4,0-2.6,0-3.9,0
		c-35.3-1.3-64.9-27.3-70.8-62.1v-0.3c-0.5-2.7-0.8-5.6,0.6-6.5c0.3-0.2,0.6-0.3,1-0.3c-0.9-2.2-0.3-4.7,1.5-6.2
		c0.8-0.6,1.8-0.9,2.8-0.8c2.8,0.3,5.5,3.4,6.4,4.4c3.4-0.4,6.8,0.1,9.9,1.6c2.9,1.5,6.2,7.3,9.8,13.6c2.5,4.4,5.1,8.9,7.1,11
		c3.6,3.6,25.9,9.6,38.3,12.6c-0.5-1.3-1.1-2.5-1.8-3.7c-1.1-1.9-3.7-4.1-6.2-6.2s-5.1-4.3-6.3-6.3c-1.6-2.8-2.1-6.1-1.3-9.2
		c0.3-1.6,1.2-3.1,2.6-4c2.4-1.4,10.1,3.6,26,14.4c3.5,2.4,6.8,4.7,9.8,6.6c8.3,5.5,10.4,10.1,13,16.1c1.5,3.7,3.4,7.2,5.5,10.5
		c2.7,4.1,17.6,18.9,34.8,35.9c31.3,31,74.1,73.4,81.1,88.4l0,0c5.4,11.5,1.3,26.3-9.6,35.1C302.7,422.8,295.8,425.3,288.6,425.3z
		 M160.2,272.1c5,0,10.1,0.4,13.3,4c2.5,2.8,3.9,6.4,5.2,9.9c0.7,1.9,1.5,3.8,2.4,5.6c3.6,7,7.4,14,11.1,20.8
		c10.6,19.3,20.3,35.8,29.7,50.5l1.5,2.3c10.9,17,23.3,36.4,39.7,48.8c15.5,11.7,32,12.8,44.1,3c10.4-8.5,14.3-22.5,9.2-33.3l0,0
		c-6.9-14.8-49.6-57.1-80.8-88c-18-17.8-32.2-31.9-35-36.2c-2.2-3.4-4.1-7-5.7-10.7c-2.5-5.7-4.5-10.2-12.5-15.4
		c-3-2-6.3-4.2-9.8-6.6c-9-6.1-22.6-15.4-24.4-14.4c-1,0.7-1.6,1.8-1.8,3c-0.6,2.7-0.2,5.6,1.1,8c1.1,1.8,3.6,3.9,6,5.9
		c2.6,2.2,5.4,4.6,6.6,6.7c2.2,3.8,2.3,5.2,2.3,5.4c0,0.2-0.1,0.5-0.3,0.6c-0.2,0.1-0.4,0.2-0.6,0.1c-1.4-0.3-35.3-8.3-40.2-13.2
		c-2.2-2.2-4.7-6.6-7.3-11.3c-3.1-5.5-6.6-11.7-9.1-12.9c-2.9-1.4-6.2-1.8-9.4-1.4c-0.3,0.1-0.6-0.1-0.7-0.3
		c-0.8-1.1-3.5-3.9-5.7-4.2c-0.6-0.1-1.2,0.1-1.7,0.5c-1.9,1.5-1.5,4.1-0.3,6c0.2,0.3,0.2,0.7-0.1,1c-0.3,0.3-0.7,0.3-1,0.1
		c-0.8-0.5-1.1-0.6-1.2-0.5s-0.6,0.9,0.1,5v0.3c5.8,34.1,34.7,59.5,69.4,60.9c1.2,0,2.4,0,3.8,0L160.2,272.1z"></path><path class="st2" d="M95.2,202.7c0,0,3.6,19.4,18.1,32.5"></path><path class="st1" d="M113.3,235.9c-0.2,0-0.4-0.1-0.5-0.2c-14.6-13.1-18.3-32.7-18.3-32.9c-0.1-0.4,0.2-0.8,0.6-0.9
		s0.8,0.2,0.9,0.6c0,0.2,3.7,19.3,17.9,32.1c0.3,0.3,0.3,0.8,0,1.1C113.7,235.8,113.5,235.9,113.3,235.9z"></path><path class="st2" d="M86.2,205.8c0,0,11.4,27.9,21.6,33"></path><path class="st1" d="M107.8,239.6c-0.1,0-0.2,0-0.3-0.1c-10.3-5.2-21.5-32.2-22-33.4c-0.2-0.4,0-0.8,0.4-1c0,0,0,0,0,0
		c0.4-0.2,0.8,0,1,0.4c0.1,0.3,11.4,27.7,21.2,32.6c0.4,0.2,0.5,0.6,0.3,1C108.4,239.4,108.1,239.6,107.8,239.6L107.8,239.6z"></path><path class="st1" d="M301.2,363.1c-0.2,0-0.3,0-0.4-0.1c-0.3-0.2-0.4-0.7-0.2-1c0.3-0.4,26.4-39,47.9-79.9c0.2-0.4,0.7-0.5,1-0.2
		c0.3,0.2,0.4,0.6,0.3,1c-21.6,41-47.8,79.6-48,80C301.7,363,301.4,363.1,301.2,363.1z"></path><path class="st1" d="M356.7,149.2c-0.2,0-0.4-0.1-0.5-0.2c-0.3-0.3-0.4-0.7-0.1-1.1c9.1-10.7,13.1-24.7,11-38.6
		c-1-6.7-3.5-12.4-7.1-16.6c-4.8-5.5-12.2-9.1-21-10.1c-8.3-1-16.7,0.3-24,1.5l-0.7,0.1c-6.3,1.1-12.8,2.2-18.9,0.4
		c-3.1-1-6-2.3-8.7-4c-1.9-1.1-3.9-2.1-5.9-3c-9-3.7-20.2-2.4-28.5,3.4c-8.2,5.9-13.4,15.2-14.1,25.4c0,0.4-0.4,0.7-0.8,0.7
		c0,0,0,0,0,0c-0.4,0-0.7-0.4-0.7-0.8c0.7-10.6,6.1-20.3,14.7-26.5c8.7-6.1,20.4-7.5,29.9-3.5c2.1,0.9,4.1,1.9,6.1,3.1
		c2.6,1.6,5.5,2.9,8.4,3.9c5.9,1.7,12.2,0.6,18.3-0.5l0.7-0.1c7.4-1.3,16-2.6,24.5-1.6c9.2,1.1,17,4.9,22,10.6
		c3.8,4.4,6.4,10.4,7.5,17.3c2.2,14.3-2,28.8-11.3,39.8C357.2,149.1,356.9,149.2,356.7,149.2z"></path><path class="st1" d="M279.4,210.3c-2.4,0-4.7-0.7-6.8-1.9c-6.4-4.1-8.4-13-8.5-13.4c-0.1-0.4,0.2-0.8,0.6-0.9s0.8,0.2,0.9,0.6
		c0,0.1,1.9,8.7,7.8,12.4c2.8,1.7,6.2,2.2,9.3,1.3c13.5-3.2,13.4-20,13.4-20.1c0-0.4,0.3-0.8,0.7-0.8c0,0,0,0,0,0l0,0
		c0.4,0,0.8,0.3,0.8,0.8c0,0.2,0.1,18.1-14.6,21.6C281.8,210.1,280.6,210.3,279.4,210.3z"></path><path class="st1" d="M270.5,223.2c0,0,22.1,0.5,35.5-17c0,0-6.9,35.5-34.6,38.3L270.5,223.2z"></path><path class="st1" d="M271.5,245.3c-0.2,0-0.4-0.1-0.5-0.2c-0.2-0.1-0.3-0.3-0.3-0.5l-0.9-21.3c0-0.2,0.1-0.4,0.2-0.6
		c0.2-0.1,0.4-0.2,0.6-0.2c0.2,0,21.9,0.2,34.9-16.7c0.2-0.3,0.6-0.4,0.9-0.2c0.3,0.1,0.5,0.5,0.4,0.8
		C306.7,206.7,299.5,242.4,271.5,245.3L271.5,245.3z M271.3,224l0.9,19.8c21.4-2.8,29.9-25.9,32.3-34.5
		C292.5,222.5,275.2,223.8,271.3,224z"></path><path class="st1" d="M322.9,421.2c-0.4,0-0.8-0.4-0.8-0.8c0-0.2,0.1-0.4,0.2-0.5c0.4-0.4,37.1-36.5,60.8-82.2
		c0.2-0.4,0.6-0.5,1-0.3c0.4,0.2,0.5,0.6,0.3,1c-23.8,45.9-60.7,82.2-61.1,82.6C323.3,421.1,323.1,421.2,322.9,421.2z"></path><path class="st1" d="M227.7,248.3c-4.9,0-9.4-4.1-11.9-8.6c-4.7-8.5-5.3-19.5-1.6-29.4c3.3-8.9,10-17.1,18.8-23
		c0.3-0.2,0.8-0.2,1.1,0.2c0.2,0.3,0.2,0.8-0.2,1.1c0,0,0,0,0,0c-8.6,5.8-15.1,13.7-18.3,22.2c-3.5,9.5-3,20,1.5,28.2
		c2.5,4.6,7.2,8.7,12.1,7.6c0.4-0.1,0.8,0.2,0.9,0.6c0,0,0,0,0,0c0.1,0.4-0.2,0.8-0.6,0.9C229,248.3,228.3,248.3,227.7,248.3z"></path></g><g id="Planets"><circle class="st2" cx="121.7" cy="151.6" r="38.1"></circle><path class="st3" d="M121.7,190.4c-21.5,0-38.9-17.4-38.9-38.8c0-21.5,17.4-38.9,38.8-38.9c21.5,0,38.9,17.4,38.9,38.8c0,0,0,0,0,0
		C160.5,173,143.2,190.4,121.7,190.4z M121.7,114.3c-20.6,0-37.3,16.7-37.3,37.3s16.7,37.3,37.3,37.3s37.3-16.7,37.3-37.3
		c0,0,0,0,0,0C159,131,142.3,114.3,121.7,114.3z"></path><path class="st3" d="M62.2,182.2c-4.3,0-7.5-0.8-8.3-2.9c-2.4-6.4,20-18.4,29.7-23.3c0.4-0.2,0.8,0,1,0.3c0.2,0.4,0,0.8-0.3,1
		c-21.6,10.8-30.1,18.5-29,21.4s13,3,36.9-3.6c10.6-2.9,22.3-6.8,33.9-11.2c11.9-4.5,23.4-9.5,33.2-14.4
		c21.9-10.8,30.6-18.6,29.6-21.6s-12.4-3-35.4,3.1c-0.4,0.1-0.8-0.1-0.9-0.5c-0.1-0.4,0.1-0.8,0.5-0.9c0,0,0,0,0,0
		c10.4-2.8,34.8-8.5,37.2-2.2c2.4,6.3-20.4,18.6-30.3,23.5s-21.5,9.9-33.4,14.4c-11.6,4.4-23.4,8.3-34,11.2
		C85.3,178.8,71.3,182.2,62.2,182.2z"></path><circle class="st2" cx="51.8" cy="215.8" r="9.9"></circle><path class="st3" d="M51.8,226.4c-5.9,0-10.6-4.8-10.6-10.6c0-5.9,4.8-10.6,10.6-10.6s10.6,4.8,10.6,10.6
		C62.4,221.7,57.7,226.4,51.8,226.4z M51.8,206.7c-5,0-9.1,4.1-9.1,9.1s4.1,9.1,9.1,9.1s9.1-4.1,9.1-9.1
		C60.9,210.8,56.8,206.7,51.8,206.7L51.8,206.7z"></path><polygon class="st3" points="43.7,125.8 46.5,135.4 56.1,138.2 46.5,141 43.7,150.6 40.9,141 31.3,138.2 40.9,135.4 	"></polygon><polygon class="st3" points="185.7,180.2 187.7,187 194.5,189 187.7,191 185.7,197.9 183.7,191 176.9,189 183.7,187 	"></polygon><polygon class="st2" points="69.6,96.5 71.6,103.3 78.4,105.3 71.6,107.3 69.6,114.1 67.6,107.3 60.7,105.3 67.6,103.3 	"></polygon><path class="st3" d="M69.6,114.9L69.6,114.9c-0.3,0-0.6-0.2-0.7-0.6l-1.9-6.4l-6.4-1.9c-0.4-0.1-0.6-0.6-0.5-1
		c0.1-0.2,0.3-0.4,0.5-0.5l6.4-1.9l1.9-6.4c0.2-0.4,0.6-0.6,1-0.4c0.2,0.1,0.3,0.2,0.4,0.4l1.9,6.4l6.4,1.9c0.4,0.1,0.6,0.6,0.5,1
		c-0.1,0.2-0.3,0.4-0.5,0.5l-6.4,1.9l-1.9,6.4C70.2,114.6,69.9,114.9,69.6,114.9z M63.4,105.3l4.3,1.3c0.3,0.1,0.4,0.3,0.5,0.5
		l1.3,4.3l1.3-4.3c0.1-0.2,0.3-0.4,0.5-0.5l4.3-1.3l-4.3-1.3c-0.2-0.1-0.4-0.3-0.5-0.5l-1.3-4.3l-1.3,4.3c-0.1,0.2-0.3,0.4-0.5,0.5
		L63.4,105.3z"></path><circle class="st3" cx="164.2" cy="90.4" r="3.4"></circle><path class="st2" d="M115.3,120.2c0,0-15.4,3.7-20.3,15.7"></path><path class="st3" d="M95,136.6c-0.1,0-0.2,0-0.3-0.1c-0.4-0.2-0.6-0.6-0.4-1c0,0,0,0,0,0c5-12.2,20.2-16,20.8-16.2
		c0.4-0.1,0.8,0.2,0.9,0.6c0.1,0.4-0.1,0.8-0.6,0.9c0,0,0,0,0,0c-0.2,0-15.1,3.8-19.8,15.3C95.6,136.5,95.3,136.6,95,136.6z"></path></g><g id="VR_Glass"><path class="st1" d="M320.1,126.6c0,0,18.2,6,39.5,26.9l-2.9,11.6c0,0-16-20.5-35.9-27.5L320.1,126.6z"></path><path class="st1" d="M356.7,165.9c-0.2,0-0.5-0.1-0.6-0.3c-0.2-0.2-16.1-20.4-35.6-27.3c-0.3-0.1-0.5-0.4-0.5-0.7l-0.6-11
		c0-0.2,0.1-0.5,0.3-0.6c0.2-0.2,0.5-0.2,0.7-0.1c0.2,0.1,18.6,6.3,39.8,27.1c0.2,0.2,0.3,0.5,0.2,0.7l-2.9,11.6
		c-0.1,0.3-0.3,0.5-0.6,0.6L356.7,165.9z M321.5,137c16.9,6.2,31.1,22,34.8,26.4l2.4-9.7c-17.8-17.5-33.6-24.4-37.8-26L321.5,137z"></path><path class="st2" d="M212.1,173.2c0,0,32.8,16.1,36.4,16.1s18-1,19.3-4.2s-1.9-4.8,1.9-5.5s8,4.2,13.9,4.2s39.6-7.4,45.7-13.5
		s7.4-40.3,3.2-47s-21.1-22.7-29.3-24.2c-7.6-1.3-78,16.1-88.3,23.8S205.6,161.6,212.1,173.2z"></path><path class="st1" d="M248.5,190c-3.6,0-33.4-14.5-36.7-16.2c-0.1-0.1-0.3-0.2-0.3-0.3c-6.7-12-7.4-43.4,3.1-51.2
		c10-7.5,80.7-25.4,88.9-24c8.5,1.5,25.6,17.8,29.8,24.5c2.4,3.8,2.9,14.9,2.4,24.2c-0.2,4.5-1.4,19.5-5.7,23.8
		c-6.5,6.5-40.9,13.8-46.3,13.8c-3.2,0-5.8-1.3-8.2-2.5c-2.1-1.1-3.9-2-5.5-1.7c-1.1,0.2-1.3,0.4-1.3,0.4c0,0.3,0,0.6,0.1,0.9
		c0.4,1.2,0.3,2.5-0.1,3.7C266.8,189.7,248.7,190,248.5,190z M212.6,172.6c13.1,6.4,33.4,15.9,35.9,15.9c5.9,0,17.7-1.4,18.6-3.7
		c0.3-0.9,0.3-1.9,0.1-2.8c-0.3-0.7-0.2-1.4,0.1-2.1c0.6-0.7,1.4-1.1,2.3-1.1c2.1-0.4,4.2,0.7,6.5,1.8s4.7,2.4,7.5,2.4
		c5.6,0,39.2-7.3,45.2-13.3c5.8-5.8,7.1-39.6,3.1-46.1s-20.9-22.4-28.8-23.8s-77.8,16.3-87.7,23.7
		C205.7,130.8,206.4,161.1,212.6,172.6z"></path><path class="st2" d="M301,99.1c-14.5,1.3-79.2,14.2-88.4,20.4s-9.7,48.3-0.5,53.6s85-9.7,97.6-21.7S315.5,97.8,301,99.1z"></path><path class="st1" d="M219.8,175.1c-3.8,0-6.6-0.4-8.1-1.2c-3.9-2.3-6.5-10.8-7-22.7c-0.5-13.2,1.9-28.4,7.4-32.2
		c9.2-6.3,73.6-19.2,88.8-20.6c4.6-0.4,8.8,3.1,11.8,9.8c7.4,16.2,4.7,36.9-2.5,43.9c-6.8,6.5-30.5,13.4-50.4,17.6
		C245.2,172.6,229.4,175.1,219.8,175.1z M301,99.1l0.1,0.8c-13.9,1.3-79,14.2-88,20.4c-4.4,3-7.3,16.3-6.7,30.9
		c0.4,11.3,2.8,19.5,6.2,21.4c4,2.3,23.8,0.5,47-4.4c24.8-5.2,44.3-12,49.7-17.2c8.2-7.9,7.9-29.5,2.2-42.2
		c-1.6-3.5-5.1-9.4-10.3-8.9L301,99.1z"></path><line class="st4" x1="313.9" y1="153.9" x2="327.7" y2="167.1"></line><path class="st1" d="M327.7,167.8c-0.2,0-0.4-0.1-0.5-0.2l-13.9-13.2c-0.3-0.3-0.3-0.8,0-1.1c0.3-0.3,0.8-0.3,1.1,0l0,0l13.9,13.2
		c0.3,0.3,0.3,0.8,0,1.1c0,0,0,0,0,0C328.1,167.7,327.9,167.8,327.7,167.8z"></path><path class="st2" d="M215.9,126.5c-4.5,4.5-4.5,27.1-0.3,35.8s79.9-8.7,88.9-17.4s3.5-31.2-3.2-36.7S220.4,122,215.9,126.5z"></path><path class="st1" d="M224.9,165.4c-1.9,0-3.7-0.1-5.6-0.4c-2.4-0.4-3.9-1.2-4.4-2.4c-4.1-8.6-4.6-31.6,0.5-36.6
		c2.6-2.6,23.5-8.7,42.2-13.1c11.8-2.8,39.7-8.9,44.2-5.3c4.2,3.4,7.8,13,8.2,21.7c0.3,7-1.4,12.8-4.9,16.1
		c-4.7,4.5-24.3,10.3-39.7,13.9C251.8,162.4,235.3,165.4,224.9,165.4z M296.5,107.9c-17.1,0-75.8,14.8-80,19.1
		c-4.2,4.3-4.3,26.3-0.2,34.9c0.3,0.7,1.5,1.2,3.3,1.6c16.5,3,76.7-11.8,84.4-19.2c3.2-3.1,4.7-8.4,4.5-15
		c-0.4-8.4-3.7-17.4-7.6-20.6C300.2,108.2,298.7,107.9,296.5,107.9z"></path><path class="st3" d="M230.3,148.4c-0.4,0-0.8-0.3-0.8-0.8c0-0.2,0.1-0.3,0.2-0.5c7.4-9.1,18.6-23,19.2-24.2
		c0.1-0.4,0.5-0.6,0.9-0.5c0,0,0.1,0,0.1,0c0.4,0.1,0.6,0.6,0.5,1c0,0,0,0,0,0c-0.4,1.3-15,19.2-19.4,24.7
		C230.8,148.3,230.5,148.4,230.3,148.4z"></path><path class="st3" d="M257.3,151c-0.4,0-0.8-0.3-0.8-0.8c0-0.2,0.1-0.4,0.2-0.6l31.8-30.5c0.3-0.3,0.8-0.3,1.1,0c0,0,0,0,0,0
		c0.3,0.3,0.3,0.8,0,1.1c0,0,0,0,0,0l-31.7,30.5C257.7,150.9,257.5,151,257.3,151z"></path></g></svg>